<svg xmlns="http://www.w3.org/2000/svg" viewBox="0 0 89.06947623679682 89.06947623679682" height="89.06947623679682" width="89.06947623679682"><g><svg/></g><g id="icon-0"><svg viewBox="0 0 89.06947623679682 89.06947623679682" height="89.06947623679682" width="89.06947623679682"><g><path d="M0 44.535c0-24.596 19.939-44.535 44.535-44.535 24.596 0 44.535 19.939 44.534 44.535 0 24.596-19.939 44.535-44.534 44.534-24.596 0-44.535-19.939-44.535-44.534zM44.535 83.334c21.428 0 38.8-17.371 38.799-38.799 0-21.428-17.371-38.8-38.799-38.8-21.428 0-38.8 17.371-38.8 38.8 0 21.428 17.371 38.8 38.8 38.799z" data-fill-palette-color="accent" fill="#c5170b" stroke="transparent"/><ellipse rx="44.08939073721442" ry="44.08939073721442" cx="44.53473811839841" cy="44.53473811839841" fill="#c5170b" stroke="transparent" stroke-width="0" fill-opacity="1" data-fill-palette-color="accent"/></g><g transform="matrix(1,0,0,1,21.437205562203268,22.284411150945264)"><svg viewBox="0 0 46.19506511239028 44.50065393490629" height="44.50065393490629" width="46.19506511239028"><g><svg xmlns="http://www.w3.org/2000/svg" xmlns:xlink="http://www.w3.org/1999/xlink" version="1.1" x="0" y="0" viewBox="4.1 5.7000002933936145 91.84680416452579 88.47791072939533" style="enable-background:new 0 0 100 100;" xml:space="preserve" height="44.50065393490629" width="46.19506511239028" class="icon-dxe-0" data-fill-palette-color="quaternary" id="dxe-0"><g fill="#ebe5e5" data-fill-palette-color="quaternary"><path d="M93.9 45.1L79.1 42.1S78 28.7 77.8 26.9C77.7 26.2 77.6 25.3 77.3 24.3 74.4 23.4 72.1 21.3 70.9 18.6 70.4 18.5 70 18.4 69.6 18.4 68.3 18.4 52.5 18.9 52.5 18.9 51 18.7 49.6 19.7 49.1 21.1L45.1 36.6C44.6 38.3 44.7 39.3 46.7 39.6S49.2 39.1 49.6 37.7L53.7 24.7H61.5C60.2 28.5 57.5 36.1 55.4 39.1 53.6 41.6 50 45.1 48.9 48.1L36.1 59.6C35.5 60.1 34.7 60.1 34.1 59.7L20.2 48.9C18.1 46.9 16.2 46.4 14.5 48.3 12.7 50.3 13.4 52.9 15.5 54.8L31.3 69.5C32.3 70.4 33.6 70.9 34.8 70.9S37.1 70.5 38.1 69.7L54.9 56.1 70.3 69.4C70.7 69.8 71.1 70.3 71.3 70.8L80.1 90.8C81 92.6 82.8 95 85.4 93.9S87.9 91 86.9 87.8L79.7 65.4C79.4 64.8 79 64.3 78.6 63.9L65.3 51.5C68.4 47.6 71.8 42.8 73.2 40.9L74.1 45.5C74.3 46.8 75.4 47.9 76.7 48.1 76.7 48.1 93.3 49.9 93.5 49.9 95 49.9 95.6 49.6 95.9 48 96.1 46.2 95.7 45.4 93.9 45.1" fill="#ebe5e5" data-fill-palette-color="quaternary"/><circle cx="80.6" cy="14.3" r="8.6" fill="#ebe5e5" data-fill-palette-color="quaternary"/><path d="M10.1 22.9L40.9 23.6H41C41.7 23.6 42.3 23 42.3 22.3S41.7 21 41 21L10.2 22C10 22 9.7 22.2 9.7 22.5 9.5 22.7 9.9 22.9 10.1 22.9" fill="#ebe5e5" data-fill-palette-color="quaternary"/><path d="M7.3 29.7L38.1 30.4H38.2C38.9 30.4 39.5 29.8 39.5 29.1S38.9 27.8 38.2 27.8L7.4 28.5C7.2 28.5 6.9 28.7 6.9 29 6.8 29.5 7.1 29.7 7.3 29.7" fill="#ebe5e5" data-fill-palette-color="quaternary"/><path d="M36.7 35.9C36.7 35.2 36.1 34.6 35.4 34.6L4.6 35.3C4.4 35.3 4.1 35.5 4.1 35.8 4.1 36 4.3 36.4 4.6 36.4L35.4 37.2C36.1 37.2 36.7 36.6 36.7 35.9" fill="#ebe5e5" data-fill-palette-color="quaternary"/></g></svg></g></svg></g></svg></g></svg>